<!--?xml version="1.0" standalone="no"?-->
        <!--?xml version="1.0" standalone="no"?-->              <svg id="sw-js-blob-svg" viewBox="0 0 100 100" xmlns="http://www.w3.org/2000/svg" version="1.1">                    <defs>                         <linearGradient id="sw-gradient" x1="0" x2="1" y1="1" y2="0">                            <stop id="stop1" stop-color="rgba(133.317, 55, 248, 1)" offset="0%"></stop>                            <stop id="stop2" stop-color="rgba(251, 168, 31, 1)" offset="100%"></stop>                        </linearGradient>                    </defs>                <path fill="url(#sw-gradient)" d="M17.8,-32.1C22.1,-28.4,24,-21.7,26.2,-15.8C28.5,-10,31.1,-5,33.5,1.4C35.9,7.7,38.1,15.5,35.8,21.3C33.6,27.2,26.9,31.1,20.2,33.2C13.5,35.2,6.8,35.2,-0.5,36.2C-7.8,37.1,-15.6,38.8,-21.5,36.4C-27.5,33.9,-31.5,27.2,-35.9,20.5C-40.3,13.7,-44.9,6.8,-42.7,1.3C-40.5,-4.3,-31.4,-8.6,-25.9,-13.4C-20.5,-18.3,-18.7,-23.8,-15,-27.9C-11.3,-32,-5.6,-34.7,0.6,-35.6C6.8,-36.6,13.5,-35.9,17.8,-32.1Z" width="100%" height="100%" transform="translate(50 50)" stroke-width="0" style="transition: all 0.3s ease 0s;" stroke="url(#sw-gradient)"></path>              </svg>